<?xml version="1.0" encoding="UTF-8" standalone="no"?>
<!-- Created with Inkscape (http://www.inkscape.org/) -->

<svg
   width="100.00006mm"
   height="100mm"
   viewBox="0 0 100.00006 100"
   version="1.1"
   id="svg1"
   xmlns="http://www.w3.org/2000/svg"
   xmlns:svg="http://www.w3.org/2000/svg">
  <defs
     id="defs1" />
  <g
     id="layer1"
     transform="translate(-35.047766,-20.000002)">
    <path
       style="fill:#e3e3e3;fill-opacity:1;stroke:none;stroke-width:1;stroke-linejoin:miter;stroke-opacity:1"
       id="rect1"
       width="100"
       height="100"
       x="35"
       y="20"
       d="m 50,20 h 70 c 8.31,0 15,6.69 15,15 v 70 c 0,8.31 -6.69,15 -15,15 H 50 c -8.31,0 -15,-6.69 -15,-15 V 35 c 0,-8.31 6.69,-15 15,-15 z"
       rx="15"
       ry="15" />
    <circle
       style="fill:none;stroke:#807d8d;stroke-width:6.25;stroke-dasharray:none;stroke-opacity:1"
       id="path2"
       cx="85"
       cy="70"
       r="35" />
    <path
       style="fill:#ffffff;stroke:#807d8d;stroke-width:6.25;stroke-dasharray:none;stroke-opacity:1"
       d="M 73.000003,79.999998 73.000001,20 v 0 M 71.94167,62.802082"
       id="path3" />
    <path
       style="fill:#ffffff;stroke:#807d8d;stroke-width:6.25;stroke-dasharray:none;stroke-opacity:1"
       d="m 97.000004,120 -2e-6,-60.000002 v 0 m -1.058331,42.802082"
       id="path3-3" />
    <path
       style="fill:none;fill-opacity:1;stroke:#807d8d;stroke-width:6.24999;stroke-linejoin:miter;stroke-dasharray:none;stroke-opacity:1"
       d="M 30.000001,59.999998 140,79.999998"
       id="path6" />
  </g>
</svg>
